<svg xmlns="http://www.w3.org/2000/svg" xmlns:xlink="http://www.w3.org/1999/xlink" xmlns:lucid="lucid" width="580" height="400"><g transform="translate(-360 -340)" lucid:page-tab-id="0_0"><path d="M460 540c0 22.1-17.9 40-40 40s-40-17.9-40-40 17.9-40 40-40 40 17.9 40 40z" stroke="#000" stroke-width="2" fill="#fff"/><use xlink:href="#a" transform="matrix(1,0,0,1,400,500) translate(0 43.6)"/><path d="M462 540h78.5" stroke="#000" stroke-width="2" fill="none"/><path d="M462.03 541h-1.1l.07-1-.03-1h1.06z"/><path d="M555.76 540l-14.26 4.64v-9.28z" stroke="#000" stroke-width="2"/><path d="M560 365c0-2.76 2.24-5 5-5h150c2.76 0 5 2.24 5 5v350c0 2.76-2.24 5-5 5H565c-2.76 0-5-2.24-5-5z" stroke="#000" stroke-width="2" fill="#fff"/><path d="M680 440c0 22.1-17.9 40-40 40s-40-17.9-40-40 17.9-40 40-40 40 17.9 40 40z" stroke="#000" stroke-width="2" fill="#fff"/><use xlink:href="#b" transform="matrix(1,0,0,1,620,400) translate(-8.450000000000003 32.8)"/><use xlink:href="#c" transform="matrix(1,0,0,1,620,400) translate(15 54.4)"/><path d="M680 640c0 22.1-17.9 40-40 40s-40-17.9-40-40 17.9-40 40-40 40 17.9 40 40z" stroke="#000" stroke-width="2" fill="#fff"/><use xlink:href="#b" transform="matrix(1,0,0,1,620,600) translate(-8.450000000000003 32.8)"/><use xlink:href="#d" transform="matrix(1,0,0,1,620,600) translate(15 54.4)"/><path d="M650 510c0 5.52-4.48 10-10 10s-10-4.48-10-10 4.48-10 10-10 10 4.48 10 10zM650 540c0 5.52-4.48 10-10 10s-10-4.48-10-10 4.48-10 10-10 10 4.48 10 10zM650 570c0 5.52-4.48 10-10 10s-10-4.48-10-10 4.48-10 10-10 10 4.48 10 10zM920 540c0 22.1-17.9 40-40 40s-40-17.9-40-40 17.9-40 40-40 40 17.9 40 40z" stroke="#000" stroke-width="2" fill="#fff"/><use xlink:href="#e" transform="matrix(1,0,0,1,860,500) translate(-7 43.6)"/><path d="M722 540h98.5" stroke="#000" stroke-width="2" fill="none"/><path d="M722.03 541H721v-2h1.03z"/><path d="M835.76 540l-14.26 4.64v-9.28z" stroke="#000" stroke-width="2"/><defs><path d="M33 0v-248h34V0H33" id="f"/><path d="M117-194c89-4 53 116 60 194h-32v-121c0-31-8-49-39-48C34-167 62-67 57 0H25l-1-190h30c1 10-1 24 2 32 11-22 29-35 61-36" id="g"/><path d="M115-194c55 1 70 41 70 98S169 2 115 4C84 4 66-9 55-30l1 105H24l-1-265h31l2 30c10-21 28-34 59-34zm-8 174c40 0 45-34 45-75s-6-73-45-74c-42 0-51 32-51 76 0 43 10 73 51 73" id="h"/><path d="M84 4C-5 8 30-112 23-190h32v120c0 31 7 50 39 49 72-2 45-101 50-169h31l1 190h-30c-1-10 1-25-2-33-11 22-28 36-60 37" id="i"/><path d="M59-47c-2 24 18 29 38 22v24C64 9 27 4 27-40v-127H5v-23h24l9-43h21v43h35v23H59v120" id="j"/><g id="a"><use transform="matrix(0.05,0,0,0.05,0,0)" xlink:href="#f"/><use transform="matrix(0.05,0,0,0.05,5,0)" xlink:href="#g"/><use transform="matrix(0.05,0,0,0.05,15,0)" xlink:href="#h"/><use transform="matrix(0.05,0,0,0.05,25,0)" xlink:href="#i"/><use transform="matrix(0.05,0,0,0.05,35,0)" xlink:href="#j"/></g><path d="M197 0v-115H63V0H30v-248h33v105h134v-105h34V0h-34" id="k"/><path d="M24-231v-30h32v30H24zM24 0v-190h32V0H24" id="l"/><path d="M85-194c31 0 48 13 60 33l-1-100h32l1 261h-30c-2-10 0-23-3-31C134-8 116 4 85 4 32 4 16-35 15-94c0-66 23-100 70-100zm9 24c-40 0-46 34-46 75 0 40 6 74 45 74 42 0 51-32 51-76 0-42-9-74-50-73" id="m"/><path d="M100-194c63 0 86 42 84 106H49c0 40 14 67 53 68 26 1 43-12 49-29l28 8c-11 28-37 45-77 45C44 4 14-33 15-96c1-61 26-98 85-98zm52 81c6-60-76-77-97-28-3 7-6 17-6 28h103" id="n"/><g id="b"><use transform="matrix(0.05,0,0,0.05,0,0)" xlink:href="#k"/><use transform="matrix(0.05,0,0,0.05,12.950000000000001,0)" xlink:href="#l"/><use transform="matrix(0.05,0,0,0.05,16.900000000000002,0)" xlink:href="#m"/><use transform="matrix(0.05,0,0,0.05,26.900000000000002,0)" xlink:href="#m"/><use transform="matrix(0.05,0,0,0.05,36.900000000000006,0)" xlink:href="#n"/><use transform="matrix(0.05,0,0,0.05,46.900000000000006,0)" xlink:href="#g"/></g><path d="M27 0v-27h64v-190l-56 39v-29l58-41h29v221h61V0H27" id="o"/><use transform="matrix(0.05,0,0,0.05,0,0)" xlink:href="#o" id="c"/><use transform="matrix(0.05,0,0,0.05,0,0)" xlink:href="#g" id="d"/><path d="M140-251c81 0 123 46 123 126C263-46 219 4 140 4 59 4 17-45 17-125s42-126 123-126zm0 227c63 0 89-41 89-101s-29-99-89-99c-61 0-89 39-89 99S79-25 140-24" id="p"/><g id="e"><use transform="matrix(0.05,0,0,0.05,0,0)" xlink:href="#p"/><use transform="matrix(0.05,0,0,0.05,14,0)" xlink:href="#i"/><use transform="matrix(0.05,0,0,0.05,24,0)" xlink:href="#j"/><use transform="matrix(0.05,0,0,0.05,29,0)" xlink:href="#h"/><use transform="matrix(0.05,0,0,0.05,39,0)" xlink:href="#i"/><use transform="matrix(0.05,0,0,0.05,49,0)" xlink:href="#j"/></g></defs></g></svg>